<?xml version="1.0" encoding="iso-8859-1"?>
<!-- Generator: Adobe Illustrator 19.0.0, SVG Export Plug-In . SVG Version: 6.00 Build 0)  -->
<svg version="1.1" id="Capa_1" xmlns="http://www.w3.org/2000/svg" xmlns:xlink="http://www.w3.org/1999/xlink" x="0px" y="0px"
	 viewBox="0 0 496 496" style="enable-background:new 0 0 496 496;" xml:space="preserve">
<g>
	<g>
		<g>
			<path d="M96,0v288H0v152c0,30.88,25.128,56,56,56h384c30.872,0,56-25.12,56-56V0H96z M56,480c-22.056,0-40-17.944-40-40V304h80
				v120v16C96,462.056,78.056,480,56,480z M480,440c0,22.056-17.944,40-40,40H95.112C105.52,469.824,112,455.664,112,440v-16V288V16
				h368V440z"/>
			<rect x="303.824" y="80" width="144.16" height="16"/>
			<rect x="432" y="128" width="16" height="16"/>
			<rect x="303.824" y="128" width="112.16" height="16"/>
			<path d="M166.336,135.464c6.928,6.36,14.896,12.328,24.368,18.232l25.2,15.736l25.208-15.736
				c9.472-5.912,17.44-11.88,24.36-18.232c11.416-10.472,22.984-24.32,22.312-47.616c-0.224-7.896-2.776-15.288-6.992-21.504
				l28.68-28.68L298.16,26.352L269.392,55.12c-5.976-4.008-13-6.592-20.6-7.04c-12.624-0.688-24.552,3.936-32.888,12.336
				c-8.336-8.408-20.36-12.984-32.888-12.336c-21.256,1.232-38.384,18.704-38.992,39.768
				C143.368,111.144,154.928,124.992,166.336,135.464z M160.008,88.28c0.384-12.824,10.888-23.472,23.928-24.232
				c0.56-0.032,1.112-0.048,1.664-0.048c9.912,0,18.896,5.184,23.192,13.512l7.104,13.784l7.12-13.784
				c4.536-8.8,14.352-14.136,24.856-13.464c3.544,0.208,6.864,1.192,9.88,2.704l-40.696,40.688l-10.584-15.88l-13.312,8.872
				l21.416,32.12l54.512-54.52c1.584,3.136,2.592,6.584,2.696,10.256c0.4,13.776-4.408,23.688-17.128,35.368
				c-6.192,5.68-13.392,11.064-22.016,16.448l-16.744,10.448l-16.736-10.448c-8.624-5.384-15.832-10.76-22.016-16.448
				C164.416,111.976,159.616,102.056,160.008,88.28z"/>
			<rect x="303.824" y="224" width="16.16" height="16"/>
			<rect x="336" y="224" width="112" height="16"/>
			<rect x="303.824" y="272" width="112.16" height="16"/>
			<rect x="432" y="272" width="16" height="16"/>
			<path d="M166.336,279.464c6.928,6.36,14.896,12.328,24.368,18.232l25.2,15.736l25.208-15.736
				c9.472-5.912,17.44-11.88,24.36-18.232c11.416-10.472,22.984-24.32,22.312-47.616c-0.224-7.896-2.776-15.288-6.992-21.504
				l28.68-28.68l-11.312-11.312l-28.768,28.768c-5.976-4.008-13-6.592-20.6-7.04c-12.624-0.688-24.552,3.936-32.888,12.336
				c-8.336-8.416-20.36-13.008-32.888-12.336c-21.256,1.232-38.384,18.704-38.992,39.768
				C143.368,255.144,154.928,268.992,166.336,279.464z M160.008,232.28c0.384-12.824,10.888-23.472,23.928-24.232
				c0.56-0.032,1.112-0.048,1.664-0.048c9.912,0,18.896,5.184,23.192,13.512l7.104,13.784l7.12-13.784
				c4.536-8.8,14.352-14.16,24.856-13.464c3.544,0.208,6.864,1.192,9.88,2.704l-40.696,40.688l-10.584-15.88l-13.312,8.872
				l21.416,32.12l54.512-54.52c1.584,3.136,2.592,6.584,2.696,10.256c0.4,13.776-4.408,23.688-17.128,35.368
				c-6.192,5.68-13.392,11.064-22.016,16.448l-16.744,10.448l-16.736-10.448c-8.624-5.384-15.832-10.76-22.016-16.448
				C164.416,255.976,159.616,246.056,160.008,232.28z"/>
			<rect x="303.824" y="368" width="144.16" height="16"/>
			<rect x="303.824" y="416" width="16.16" height="16"/>
			<rect x="336" y="416" width="112" height="16"/>
			<path d="M166.336,423.464c6.928,6.36,14.896,12.328,24.368,18.232l25.2,15.736l25.208-15.736
				c9.472-5.912,17.44-11.88,24.36-18.232c11.416-10.472,22.984-24.32,22.312-47.616c-0.224-7.896-2.776-15.288-6.992-21.504
				l28.68-28.68l-11.312-11.312l-28.768,28.768c-5.976-4.008-13-6.592-20.6-7.04c-12.624-0.68-24.552,3.936-32.888,12.336
				c-8.336-8.408-20.36-12.976-32.888-12.336c-21.256,1.232-38.384,18.704-38.992,39.768
				C143.368,399.144,154.928,412.992,166.336,423.464z M160.008,376.28c0.384-12.824,10.888-23.472,23.928-24.232
				c0.56-0.032,1.112-0.048,1.664-0.048c9.912,0,18.896,5.184,23.192,13.512l7.104,13.784l7.12-13.784
				c4.536-8.8,14.352-14.104,24.856-13.464c3.544,0.208,6.864,1.192,9.88,2.704l-40.696,40.688l-10.584-15.88l-13.312,8.872
				l21.416,32.12l54.512-54.52c1.584,3.136,2.592,6.584,2.696,10.256c0.4,13.776-4.408,23.688-17.128,35.368
				c-6.192,5.68-13.392,11.064-22.016,16.448l-16.744,10.448l-16.736-10.448c-8.624-5.384-15.832-10.76-22.016-16.448
				C164.416,399.976,159.616,390.056,160.008,376.28z"/>
		</g>
	</g>
</g>
<g>
</g>
<g>
</g>
<g>
</g>
<g>
</g>
<g>
</g>
<g>
</g>
<g>
</g>
<g>
</g>
<g>
</g>
<g>
</g>
<g>
</g>
<g>
</g>
<g>
</g>
<g>
</g>
<g>
</g>
</svg>
