<?xml version="1.0" encoding="utf-8"?>
<!-- Generator: Adobe Illustrator 13.0.0, SVG Export Plug-In  -->
<!DOCTYPE svg PUBLIC "-//W3C//DTD SVG 1.1//EN" "http://www.w3.org/Graphics/SVG/1.1/DTD/svg11.dtd" [
	<!ENTITY ns_flows "http://ns.adobe.com/Flows/1.0/">
]>
<svg version="1.1"
	 xmlns="http://www.w3.org/2000/svg" xmlns:xlink="http://www.w3.org/1999/xlink" xmlns:a="http://ns.adobe.com/AdobeSVGViewerExtensions/3.0/"
	 x="0px" y="0px" width="17px" height="25px" viewBox="0 0 17 25" enable-background="new 0 0 17 25" xml:space="preserve">
<defs>
</defs>
<path fill="#00C299" d="M16.767,19.744c-0.152-0.533-0.704-0.842-1.235-0.689l-9.355,2.654c4.903-5.921,8.242-11.218,8.303-15.438
	c0.025-1.888-0.814-3.642-2.495-4.7C10.317,0.5,7.966,0.006,4.781,0C3.606,0.002,2.315,0.072,0.899,0.216
	c-0.55,0.056-0.951,0.546-0.894,1.097c0.056,0.548,0.545,0.949,1.095,0.894c1.358-0.14,2.585-0.206,3.681-0.206
	c2.977-0.004,4.976,0.5,6.116,1.248c1.126,0.757,1.557,1.641,1.583,3.022c0.063,3.294-3.354,8.956-8.616,15.091l-1.742-7.926
	c-0.119-0.539-0.652-0.881-1.192-0.761c-0.54,0.119-0.879,0.653-0.762,1.192v-0.002l2.178,9.909
	c0.058,0.268,0.227,0.504,0.463,0.645c0.156,0.094,0.334,0.142,0.514,0.143c0.091,0,0.183-0.013,0.272-0.038l12.48-3.545
	C16.608,20.827,16.917,20.275,16.767,19.744z"/>
</svg>
