<?xml version="1.0" encoding="iso-8859-1"?>
<!-- Generator: Adobe Illustrator 19.0.0, SVG Export Plug-In . SVG Version: 6.00 Build 0)  -->
<svg version="1.1" id="Capa_1" xmlns="http://www.w3.org/2000/svg" xmlns:xlink="http://www.w3.org/1999/xlink" x="0px" y="0px"
	 viewBox="0 0 512 512" style="enable-background:new 0 0 512 512;" xml:space="preserve">
<g>
	<g>
		<path d="M480,176H272c-8.824,0-16,7.176-16,16v304c0,8.824,7.176,16,16,16h208c8.824,0,16-7.176,16-16V192
			C496,183.176,488.824,176,480,176z M272,496V192h208l0.008,304H272z"/>
	</g>
</g>
<g>
	<g>
		<path d="M456,208H296c-4.424,0-8,3.584-8,8v64c0,4.416,3.576,8,8,8h160c4.424,0,8-3.584,8-8v-64C464,211.584,460.424,208,456,208z
			 M448,272H304v-48h144V272z"/>
	</g>
</g>
<g>
	<g>
		<path d="M352,304h-48c-8.824,0-16,7.176-16,16v16c0,8.824,7.176,16,16,16h48c8.824,0,16-7.176,16-16v-16
			C368,311.176,360.824,304,352,304z M304,336v-16h48l0.008,16H304z"/>
	</g>
</g>
<g>
	<g>
		<path d="M448,304h-48c-8.824,0-16,7.176-16,16v16c0,8.824,7.176,16,16,16h48c8.824,0,16-7.176,16-16v-16
			C464,311.176,456.824,304,448,304z M400,336v-16h48l0.008,16H400z"/>
	</g>
</g>
<g>
	<g>
		<path d="M352,368h-48c-8.824,0-16,7.176-16,16v16c0,8.824,7.176,16,16,16h48c8.824,0,16-7.176,16-16v-16
			C368,375.176,360.824,368,352,368z M304,400v-16h48l0.008,16H304z"/>
	</g>
</g>
<g>
	<g>
		<path d="M448,368h-48c-8.824,0-16,7.176-16,16v80c0,8.824,7.176,16,16,16h48c8.824,0,16-7.176,16-16v-80
			C464,375.176,456.824,368,448,368z M400,464v-80h48l0.008,80H400z"/>
	</g>
</g>
<g>
	<g>
		<path d="M352,432h-48c-8.824,0-16,7.176-16,16v16c0,8.824,7.176,16,16,16h48c8.824,0,16-7.176,16-16v-16
			C368,439.176,360.824,432,352,432z M304,464v-16h48l0.008,16H304z"/>
	</g>
</g>
<g>
	<g>
		<rect x="320" y="240" width="64" height="16"/>
	</g>
</g>
<g>
	<g>
		<rect x="400" y="240" width="32" height="16"/>
	</g>
</g>
<g>
	<g>
		<path d="M304,72h-30.24l-1.92-9.568c-0.6-3.032-2.904-5.44-5.904-6.192l-28.392-7.096L215.688,4.48
			C214.344,1.736,211.552,0,208.496,0H128c-3.008,0-5.76,1.68-7.128,4.36L98.024,49.136l-27.992,7.112
			c-2.984,0.752-5.272,3.16-5.872,6.184L62.24,72H32c-8.824,0-16,7.176-16,16v408c0,8.824,7.176,16,16,16h208v-16H32V88h27.04
			l-2.88,14.432c-0.472,2.352,0.144,4.792,1.656,6.64C59.336,110.928,61.6,112,64,112h208c2.4,0,4.664-1.072,6.184-2.928
			c1.512-1.848,2.128-4.288,1.656-6.64L276.96,88H304v72h16V88C320,79.176,312.824,72,304,72z M73.76,96l5.096-25.488l26.608-6.76
			c2.232-0.568,4.112-2.064,5.16-4.12L132.896,16h70.608l21.304,43.52c1.04,2.12,2.96,3.664,5.248,4.24l27.088,6.776L262.24,96
			H73.76z"/>
	</g>
</g>
<g>
	<g>
		<path d="M105.752,139l-26.416,33.016l-9.68-9.68l-11.312,11.312l16,16C75.84,191.16,77.88,192,80,192c0.152,0,0.296,0,0.448-0.008
			c2.264-0.128,4.384-1.216,5.808-2.992l32-40L105.752,139z"/>
	</g>
</g>
<g>
	<g>
		<rect x="144" y="144" width="96" height="16"/>
	</g>
</g>
<g>
	<g>
		<rect x="144" y="176" width="64" height="16"/>
	</g>
</g>
<g>
	<g>
		<path d="M105.752,219l-26.416,33.016l-9.68-9.68l-11.312,11.312l16,16C75.84,271.16,77.88,272,80,272c0.152,0,0.296,0,0.448-0.008
			c2.264-0.128,4.384-1.216,5.808-2.992l32-40L105.752,219z"/>
	</g>
</g>
<g>
	<g>
		<rect x="144" y="224" width="96" height="16"/>
	</g>
</g>
<g>
	<g>
		<rect x="144" y="256" width="64" height="16"/>
	</g>
</g>
<g>
	<g>
		<path d="M105.752,299l-26.416,33.016l-9.68-9.68l-11.312,11.312l16,16C75.84,351.16,77.88,352,80,352c0.152,0,0.296,0,0.448-0.008
			c2.264-0.128,4.384-1.216,5.808-2.992l32-40L105.752,299z"/>
	</g>
</g>
<g>
	<g>
		<rect x="144" y="304" width="96" height="16"/>
	</g>
</g>
<g>
	<g>
		<rect x="144" y="336" width="64" height="16"/>
	</g>
</g>
<g>
	<g>
		<path d="M105.76,379.008l-26.416,33.016l-9.688-9.68l-11.312,11.312l16,16C75.84,431.16,77.88,432,80,432
			c0.152,0,0.296,0,0.448-0.008c2.264-0.128,4.384-1.216,5.808-2.992l32-40L105.76,379.008z"/>
	</g>
</g>
<g>
	<g>
		<rect x="144" y="384" width="96" height="16"/>
	</g>
</g>
<g>
	<g>
		<rect x="144" y="416" width="64" height="16"/>
	</g>
</g>
<g>
	<g>
		<polygon points="176,56 176,32 160,32 160,56 144,56 144,72 192,72 192,56 		"/>
	</g>
</g>
<g>
</g>
<g>
</g>
<g>
</g>
<g>
</g>
<g>
</g>
<g>
</g>
<g>
</g>
<g>
</g>
<g>
</g>
<g>
</g>
<g>
</g>
<g>
</g>
<g>
</g>
<g>
</g>
<g>
</g>
</svg>
